# xmcd
#
# Track frame offsets:
#	150
#	19120
#	37775
#	52248
#	74455
#	92213
#	112393
#	135295
#	154415
#	176018
#	198513
#	222445
#	234653
#	251453
#	267008
#	279358
#	301853
#	316783
#
# Disc length: 4427
#
# Revision: 1
# Processed by: cddbd v1.5.1PL0 Copyright (c) Steve Scherf et al.
# Submitted via: ExactAudioCopy v0.90b4
# Normalized: r0:DSETVAR1,TDELIM( - )
#
DISCID=03114912
DTITLE=Various Artist - Nights in White Satin
DYEAR=1995
DGENRE=Blues
TTITLE0=Moody Blues - Nights in white satin
TTITLE1=Roxy Music - Jealous guy
TTITLE2=Elton John - Sixty years on
TTITLE3=Joe Cocker - With a little help from my friends (Live)
TTITLE4=Eric Clapton - Let it grow
TTITLE5=Jethro Tull - Thick as a brick
TTITLE6=Deep Purple - Lalena
TTITLE7=Lindisfarne - Lady Eleanor
TTITLE8=Black - Wonderful life
TTITLE9=Sinead O Connor - Nothing compares 2 u
TTITLE10=Brenda Russell - Piano in the dark
TTITLE11=Stranglers - Strange little girl
TTITLE12=Nick Cave - Something's gotten hold of my heart
TTITLE13=Aphrodite's Child - It's five oçlock
TTITLE14=Rare Bird - Sympathy
TTITLE15=The Nice - America
TTITLE16=Al Stewart - On the border
TTITLE17=Mike Oldfield - Moonlight Shadow
EXTD=
EXTT0=
EXTT1=
EXTT2=
EXTT3=
EXTT4=
EXTT5=
EXTT6=
EXTT7=
EXTT8=
EXTT9=
EXTT10=
EXTT11=
EXTT12=
EXTT13=
EXTT14=
EXTT15=
EXTT16=
EXTT17=
PLAYORDER=
